<svg xmlns="http://www.w3.org/2000/svg" xmlns:xlink="http://www.w3.org/1999/xlink" viewBox="0,0,256,256" width="48px" height="48px"><defs><linearGradient x1="-0.302" y1="4.42" x2="15.37" y2="13.468" gradientUnits="userSpaceOnUse" id="color-1"><stop offset="0" stop-color="#b0afaf" stop-opacity="0"></stop><stop offset="1" stop-color="#262626" stop-opacity="0.8"></stop></linearGradient><linearGradient x1="-9.452" y1="19.635" x2="22.516" y2="38.092" gradientUnits="userSpaceOnUse" id="color-2"><stop offset="0" stop-color="#b0afaf" stop-opacity="0"></stop><stop offset="1" stop-color="#262626" stop-opacity="0.8"></stop></linearGradient><linearGradient x1="12.025" y1="16.161" x2="54.622" y2="40.754" gradientUnits="userSpaceOnUse" id="color-3"><stop offset="0" stop-color="#b0afaf" stop-opacity="0"></stop><stop offset="1" stop-color="#262626" stop-opacity="0.8"></stop></linearGradient><linearGradient x1="4.548" y1="19.635" x2="36.516" y2="38.092" gradientUnits="userSpaceOnUse" id="color-4"><stop offset="0" stop-color="#b0afaf" stop-opacity="0"></stop><stop offset="1" stop-color="#262626" stop-opacity="0.8"></stop></linearGradient></defs><g fill="none" fill-rule="nonzero" stroke="none" stroke-width="1" stroke-linecap="butt" stroke-linejoin="miter" stroke-miterlimit="10" stroke-dasharray="" stroke-dashoffset="0" font-family="none" font-weight="none" font-size="none" text-anchor="none" style="mix-blend-mode: normal"><g transform="scale(5.33333,5.33333)"><path d="M8.421,14h0.052v0c2.79,0 4.527,-2 4.527,-4.5c-0.052,-2.555 -1.737,-4.5 -4.474,-4.5c-2.737,0 -4.526,1.945 -4.526,4.5c0,2.5 1.736,4.5 4.421,4.5z" fill="url(#color-1)"></path><path d="M7,17h6v23c0,1.657 -1.343,3 -3,3h-6v-23c0,-1.657 1.343,-3 3,-3z" fill="url(#color-2)"></path><path d="M35.283,17.031c-3.37,-0.271 -6.398,1.225 -8.283,3.652v7.317c0,-2.339 2.008,-4.209 4.393,-3.981c2.08,0.198 3.607,2.064 3.607,4.153v14.828h6c1.657,0 3,-1.343 3,-3v-13.187c0,-5.001 -3.733,-9.381 -8.717,-9.782z" fill="url(#color-3)"></path><path d="M27,28v-7.316v-3.684h-6c-1.657,0 -3,1.343 -3,3v23h6c1.657,0 3,-1.343 3,-3z" fill="url(#color-4)"></path></g></g></svg>